<svg width="80" height="24" viewBox="0 0 80 24" fill="none" xmlns="http://www.w3.org/2000/svg">
<g clip-path="url(#clip0_165_87)">
<path d="M61.247 21.8409L64.5227 22.1288V0.993713H61.247V21.8409ZM8.48656 13.9962L4.20632 0.993713H1.0835V23.976C2.17539 23.8081 3.26729 23.6402 4.35919 23.4962V10.9975L8.15899 22.9925C9.36008 22.8485 10.5612 22.7046 11.7404 22.5606V0.993713H8.48656V13.9962ZM14.9069 22.2008C17.9205 21.8889 20.9779 21.649 24.0133 21.4571V17.9066C22.0698 18.0265 20.1262 18.1705 18.1826 18.3384V12.9887C19.4492 12.9647 21.1307 12.9407 22.6157 12.9407V9.39018C21.4365 9.39018 19.5147 9.41417 18.1826 9.43816V4.56821H24.0133V0.993713H14.9069V22.2008ZM26.1316 4.56821H29.5602V21.1692C30.6521 21.1212 31.744 21.0972 32.8359 21.0493V4.56821H36.2644V0.993713H26.1098V4.56821H26.1316ZM38.3827 20.9773H41.6584V12.7728H46.1133V9.22225H41.6584V4.56821H47.5328V0.993713H38.3827V20.9773ZM79.0013 0.993713H75.398L73.0177 7.03917L70.8776 0.993713H67.318L71.1396 11.8132L66.9686 22.4167C68.126 22.5366 69.2616 22.6806 70.419 22.8005L72.843 16.6351L75.2451 23.4243C76.4899 23.5922 77.7347 23.7841 78.9794 23.976L74.6992 11.8611L79.0013 0.993713ZM52.9268 0.993713H49.6511V21.1452C52.6429 21.2652 55.591 21.4331 58.561 21.649V18.0985C56.6829 17.9546 54.8048 17.8346 52.9268 17.7387V0.993713Z" fill="#E50914"/>
</g>
<defs>
<clipPath id="clip0_165_87">
<rect width="78.2" height="23.0303" fill="white" transform="translate(0.833252 0.969727)"/>
</clipPath>
</defs>
</svg>
