<svg width="99" height="28" viewBox="0 0 99 28" fill="none" xmlns="http://www.w3.org/2000/svg">
<path d="M16.6316 0.163606L0 7.86565L4.14401 23.6368L7.29791 23.2495L6.43071 13.3332L7.4663 12.8718L9.25457 23.0087L14.6447 22.347L13.6865 11.4018L14.712 10.9455L16.6788 22.0977L22.1312 21.4276L21.0821 9.42997L22.1194 8.96858L24.2697 21.1649L29.6598 20.5031V3.42695L16.6316 0.163606ZM17.0223 24.083L17.2968 25.6356L29.6598 27.6966V22.5305L17.029 24.083H17.0223ZM41.3526 20.8466V22.9734H43.9744C43.9746 23.4047 43.8633 23.8288 43.6511 24.2043C43.4292 24.5784 43.1009 24.878 42.7081 25.0647C42.2384 25.2793 41.7256 25.383 41.2094 25.3678C40.6134 25.3843 40.0264 25.22 39.5256 24.8963C39.0365 24.5568 38.6591 24.0798 38.4412 23.5257C38.1695 22.8328 38.0395 22.0924 38.0589 21.3484C38.039 20.6102 38.172 19.8758 38.4496 19.1914C38.6765 18.646 39.0567 18.178 39.5441 17.8443C40.0355 17.5252 40.6119 17.3621 41.1977 17.3762C41.5026 17.3735 41.8065 17.4137 42.1002 17.4957C42.3616 17.5706 42.6082 17.6896 42.8293 17.8477C43.0394 17.999 43.2207 18.1866 43.3648 18.4016C43.5155 18.6317 43.6291 18.884 43.7016 19.1493H46.6096C46.5335 18.539 46.3354 17.9503 46.027 17.4183C45.7202 16.8933 45.3175 16.4306 44.8399 16.0543C44.3394 15.6631 43.7748 15.3617 43.1712 15.1636C42.5156 14.9502 41.8298 14.8444 41.1404 14.8504C40.3338 14.8436 39.5334 14.9923 38.783 15.2882C38.0619 15.5753 37.41 16.012 36.8701 16.5696C36.3052 17.1588 35.8688 17.8589 35.5887 18.6256C35.2687 19.5128 35.113 20.4509 35.129 21.3939C35.129 22.7343 35.3838 23.89 35.8935 24.861C36.3754 25.7963 37.1175 26.5723 38.0303 27.0955C38.9552 27.589 39.9829 27.8588 41.031 27.8834C42.079 27.9079 43.1183 27.6865 44.0653 27.2369C44.8847 26.8212 45.567 26.1781 46.0304 25.3847C46.5075 24.5775 46.7455 23.6121 46.7443 22.4884V20.8449L41.3526 20.8466ZM77.5609 27.7185V15.0154H86.2615V17.3661H80.4319V20.1882H85.1451V22.5389H80.4319V25.3678H86.275V27.7185H77.5609ZM94.7078 18.7435C94.695 18.5251 94.6351 18.3121 94.5322 18.1191C94.4293 17.9261 94.2859 17.7577 94.1117 17.6254C93.7598 17.3576 93.2698 17.2246 92.6484 17.2246C92.2895 17.2126 91.9316 17.2698 91.5943 17.393C91.3399 17.4858 91.1165 17.648 90.9494 17.8611C90.8047 18.0559 90.7262 18.292 90.7254 18.5347C90.7176 18.7281 90.7636 18.9199 90.8585 19.0887C90.9584 19.2564 91.0969 19.3979 91.2626 19.5012C91.4569 19.6272 91.6662 19.7285 91.8856 19.8026C92.1414 19.8917 92.4023 19.9654 92.667 20.0232L93.7834 20.2825C94.3306 20.3989 94.8639 20.5728 95.3746 20.8012C95.8176 20.9986 96.2267 21.2646 96.587 21.5892C96.9169 21.8897 97.1797 22.2563 97.3582 22.6652C97.5451 23.1065 97.6375 23.582 97.6293 24.0611C97.6482 24.7864 97.4398 25.4994 97.0332 26.1003C96.6035 26.6971 96.0098 27.1563 95.3241 27.4222C94.4693 27.7522 93.5577 27.9102 92.6417 27.8869C91.712 27.9068 90.7873 27.7461 89.9189 27.4137C89.1875 27.1297 88.5586 26.6321 88.1138 25.9858C87.6838 25.3504 87.4593 24.5579 87.4402 23.6082H90.2068C90.2104 23.9749 90.326 24.3318 90.5382 24.631C90.7504 24.9302 91.049 25.1573 91.3939 25.282C91.7831 25.4298 92.1969 25.5018 92.6131 25.4941C92.995 25.5024 93.3752 25.4402 93.7345 25.3106C94.0183 25.2104 94.2701 25.0359 94.4636 24.8054C94.6343 24.5909 94.7274 24.3251 94.728 24.051C94.7306 23.8053 94.6459 23.5666 94.4889 23.3775C94.2965 23.1677 94.0578 23.0056 93.7918 22.9043C93.4161 22.7512 93.0279 22.6306 92.6316 22.544L91.2727 22.2156C90.1894 21.9574 89.3346 21.5499 88.7082 20.9931C88.0818 20.4363 87.7708 19.6819 87.7753 18.73C87.7555 17.9995 87.9755 17.2827 88.4017 16.6891C88.8479 16.0855 89.4489 15.6137 90.1411 15.3235C90.9394 14.985 91.8 14.818 92.667 14.8335C93.5299 14.8142 94.3869 14.9813 95.1793 15.3235C95.8522 15.6163 96.4301 16.091 96.848 16.6942C97.2497 17.2985 97.4608 18.0094 97.4542 18.7351L94.7078 18.7435ZM75.5133 27.7185H72.6726V18.0615L72.3813 18.0581L69.512 27.7185H66.673L63.8811 18.0581L63.5191 18.0615V27.7185H60.6784V15.0154H65.5061L67.9443 23.529H68.239L70.6772 15.0154H75.5133V27.7185ZM56.206 27.7185H59.2825L55.0172 15.0171H51.119L46.8471 27.7185H49.9286L50.7587 24.9334H55.3759L56.206 27.7185ZM51.4188 22.7174L52.8029 18.0615H53.3249L54.7158 22.7174H51.4188ZM98.3281 16.3591C98.1962 16.3587 98.0673 16.3195 97.9575 16.2465C97.8476 16.1734 97.7616 16.0697 97.7102 15.9482C97.6754 15.8656 97.6575 15.7769 97.6575 15.6872C97.6575 15.5976 97.6754 15.5089 97.7102 15.4262C97.7437 15.3464 97.7923 15.2738 97.8533 15.2124C97.9152 15.1515 97.9877 15.1025 98.0671 15.0676C98.2346 15.0001 98.4217 15.0001 98.5891 15.0676C98.6688 15.1021 98.7414 15.1512 98.803 15.2124C98.8643 15.2739 98.9135 15.3464 98.9478 15.4262C98.9825 15.5089 99.0004 15.5976 99.0004 15.6872C99.0004 15.7769 98.9825 15.8656 98.9478 15.9482C98.9135 16.028 98.8643 16.1006 98.803 16.1621C98.7417 16.2237 98.6691 16.2729 98.5891 16.3069C98.5065 16.3415 98.4177 16.3592 98.3281 16.3591ZM98.3281 16.1756C98.4151 16.1766 98.5007 16.1539 98.5757 16.1099C98.6477 16.0694 98.7085 16.0115 98.7525 15.9415C98.7955 15.8667 98.8181 15.7819 98.8181 15.6957C98.8181 15.6094 98.7955 15.5246 98.7525 15.4498C98.7077 15.3799 98.6464 15.322 98.574 15.2814C98.4992 15.2384 98.4144 15.2158 98.3281 15.2158C98.2419 15.2158 98.1571 15.2384 98.0823 15.2814C98.0135 15.3233 97.9558 15.3811 97.9139 15.4498C97.8697 15.5242 97.8464 15.6091 97.8464 15.6957C97.8464 15.7822 97.8697 15.8671 97.9139 15.9415C97.9558 16.0103 98.0135 16.068 98.0823 16.1099C98.1568 16.1537 98.2418 16.1764 98.3281 16.1756ZM98.0823 15.9819V15.3639H98.382C98.4222 15.3631 98.462 15.3718 98.4982 15.3892C98.5308 15.4048 98.5582 15.4293 98.5773 15.4599C98.5971 15.4936 98.607 15.5321 98.606 15.5711C98.6073 15.6103 98.5967 15.649 98.5757 15.6822C98.5569 15.7133 98.5285 15.7375 98.4948 15.7512C98.4579 15.7681 98.4175 15.7762 98.377 15.7748H98.1749V15.6536H98.3433C98.3653 15.6547 98.387 15.6475 98.4039 15.6334C98.4119 15.6251 98.4181 15.6153 98.4221 15.6046C98.4262 15.5939 98.428 15.5825 98.4275 15.5711C98.4283 15.5596 98.4267 15.5481 98.4226 15.5373C98.4185 15.5265 98.4121 15.5168 98.4039 15.5087C98.387 15.4946 98.3653 15.4874 98.3433 15.4885H98.2507V15.9819H98.0823ZM98.4847 15.699L98.6228 15.9819H98.4359L98.3096 15.699H98.4847ZM47.5543 0.281477H50.4253V12.9846H47.5543V0.281477ZM64.0596 6.63305C64.0596 8.0273 63.7952 9.20601 63.2665 10.1692C62.7753 11.0991 62.0279 11.8687 61.1128 12.3868C60.172 12.8888 59.1221 13.1513 58.0558 13.1513C56.9894 13.1513 55.9395 12.8888 54.9987 12.3868C54.0833 11.8667 53.336 11.0954 52.845 10.1641C52.3163 9.19198 52.0519 8.01327 52.0519 6.628C52.0519 5.24273 52.3163 4.06121 52.845 3.08344C53.3351 2.15635 54.08 1.38866 54.992 0.870833C55.9331 0.37005 56.9829 0.108147 58.049 0.108147C59.1151 0.108147 60.1649 0.37005 61.1061 0.870833C62.0212 1.38901 62.7686 2.15862 63.2598 3.08849C63.7885 4.05841 64.0529 5.23992 64.0529 6.63305M61.1314 6.63305C61.1532 5.88565 61.0255 5.14142 60.7559 4.44401C60.5425 3.89893 60.1714 3.4299 59.69 3.09691C59.1974 2.79413 58.6306 2.63383 58.0524 2.63383C57.4742 2.63383 56.9074 2.79413 56.4148 3.09691C55.9329 3.43016 55.5607 3.899 55.3456 4.44401C54.8391 5.85944 54.8391 7.40666 55.3456 8.82209C55.56 9.36751 55.9323 9.83654 56.4148 10.1692C56.9074 10.472 57.4742 10.6323 58.0524 10.6323C58.6306 10.6323 59.1974 10.472 59.69 10.1692C60.1719 9.83681 60.5432 9.36758 60.7559 8.82209C61.0253 8.12462 61.153 7.38043 61.1314 6.63305ZM41.521 8.55603L42.996 12.9846H46.1466L44.5065 8.21421H42.2787L42.1457 7.80334C42.57 7.72083 43.2958 7.59286 43.939 7.15505C44.3896 6.84855 44.759 6.43729 45.0156 5.95659C45.2723 5.47588 45.4084 4.94008 45.4124 4.39518C45.4317 3.64252 45.2417 2.89927 44.8635 2.24824C44.4938 1.61783 43.9453 1.11145 43.2873 0.793375C42.5159 0.436137 41.6719 0.263195 40.8222 0.288212H35.6981V12.9846H38.5708V8.55603H41.521ZM41.4671 5.92751C41.076 6.07129 40.661 6.13874 40.2446 6.1262H38.5708V2.61364H40.2395C40.6563 2.60165 41.0713 2.67262 41.4603 2.82244C41.768 2.94481 42.0279 3.16335 42.2012 3.44548C42.378 3.72989 42.4659 4.06054 42.4538 4.39518C42.4675 4.72477 42.3806 5.05073 42.2046 5.32973C42.0304 5.60398 41.7715 5.81387 41.4671 5.92751ZM64.3307 0.281477V2.6389H69.2645L69.3992 3.05145C68.9816 3.13228 68.276 3.25688 67.6429 3.67448V12.988H70.4836V2.63216H73.7874V0.274741L64.3307 0.281477Z" fill="#737373"/>
</svg>
